<svg  x="0px" y="0px" viewBox="0 0 386 65"
	 style="enable-background:new 0 0 386 65;" xml:space="preserve">
<style type="text/css">
	.st0{fill:#F46731;}
</style>
<title>Logo</title>
<desc>Created with Avocode.</desc>
<path id="SvgjsPath1008" class="st0" d="M196.8,26.8v11.5h-6.4V33h-14v5.4H170V26.8h2.8c1.3-1.8,2.2-4.5,2.2-9.3V5h18.8v21.8H196.8z
	 M292.8,26.8v11.5h-6.4V33h-17.8V5h6.4v21.8h8.4V5h6.4v21.8H292.8z M117.4,33l-9-13v13H102V5h6.4v12.2L117,5h7.3l-9.4,13.6l9.8,14.4
	H117.4z M215.8,17.8L205,33h-4.8V5h6.4v15.2L217.4,5h4.8v28h-6.4V17.8z M339,5v28h-6.4V21.9h-8.8V33h-6.4V5h6.4v10.7h8.8V5H339z
	 M362.6,11.2h-7.2V33H349V11.2h-7.2V5h20.8V11.2z M245.8,11.2h-7.2V33h-6.4V11.2H225V5h20.8V11.2z M137.6,5c5.5,0,9.8,4.3,9.8,9.6
	s-4.3,9.6-9.8,9.6h-4.2V33H127V5H137.6z M376,5c5.5,0,9.8,4.3,9.8,9.6s-4.3,9.6-9.8,9.6h-4.2V33h-6.4V5H376z M168.2,26.8V33h-17.6V5
	H168v6.2h-11v4.6h10v6.1h-10v5H168.2z M313.8,26.8V33h-17.6V5h17.4v6.2h-11v4.6h10v6.1h-10v5H313.8z M187.4,26.8V11h-6v6.6
	c0,4.6-0.8,7.4-1.8,9.2H187.4z M248.6,18.2h15.2v5.8h-15.2V18.2z M137.6,18.2c2,0,3.4-1.6,3.4-3.6c0-2-1.4-3.6-3.4-3.6h-4.2v7.2
	H137.6z M376,18.2c2,0,3.4-1.6,3.4-3.6c0-2-1.4-3.6-3.4-3.6h-4.2v7.2H376z"/>
<path id="SvgjsPath1009" class="st0" d="M56.5,57.5l10.2-15.8L54.6,24.5c6.8-1.3,9.9-4.5,11.7-10.1c0.1-2-0.2-3.2-2.7-3.3
	c-2.9,1.1-1.5,4.5-12.8,8l-0.9-1.6L58,4.9l-7.1,0l-4.4,8.2h-1.8l3.8-12.9l3.6,2h24.4l-9.8,15.5l17,24.1L69.7,63H14.4l-3.7-5.6H56.5z
	 M27.4,33.8c2.6-1.9,6-3.4,9-4.5c-0.8-1.8-2-3.1-2.3-5.2c-0.1-1.5,0-3,1.1-4.2c1-1.3,2.4-0.9,4-0.4c3.3,1.6,7.2,0.8,10.9,0.5l0-0.1
	l0.9,1.5c-2.4,0.5-5,0.8-7.6,0.6c-0.4,0.1-0.6,0.3-0.2,0.6c2.5,0.8,5.9,1,9.2,0.9l0.9,1.5c-5.9,0.5-11.4-0.4-15.4-3.4
	c-0.6-0.2-1-0.1-1.2,0.5c-0.7,1.8,0.2,4.7,1.6,7c3.5-0.2,6.5,0,9.8,0.6c4.2,0.4,4.3,4.5-0.7,4.2c-4-0.2-7.2-1.5-9.8-3.2
	c-3.1,1.7-5.4,3.3-7.4,6.2c-2.6,4,2,6.3,4.4,7.6c-0.4,0.7-0.7,1.3-1.1,2C21,42.9,22.9,37.1,27.4,33.8z M38.7,47.7
	c-1.6,2.1-1.3,3.4-8,6.5l-2.2,0c2.1-2.1,3.6-4.9,5.1-7.8c0,0,0,0,0,0c1-0.7,0.3-1.2,1.3-1.9c-0.1,0-0.1-0.1-0.2-0.1
	c1.6-2.8,3.5-5.6,6.2-7.6c5.5-3.5,12.6-3,15.9-1.4c6.3,3.1,1.9,9.3,0.1,9.8C51.2,48.3,43.9,47.8,38.7,47.7z M7.4,2.3h24.4l3.6-2
	l3.8,12.8h-1.7l-4.7-8.2l-6.8,0l0.7,1l-17.2,0L7.4,2.3z M39.8,46.1c5,0.7,10.3-0.6,14.4-4.3c2.1-2.4,1.2-6.5-3.5-6.1
	C43,36.6,40.8,42.2,39.8,46.1z M78.8,7.9c2.9,0,5.2,2.3,5.2,5.2c0,2.8-2.4,5.2-5.2,5.2c-2.9,0-5.2-2.3-5.2-5.2
	C73.5,10.3,75.9,7.9,78.8,7.9z M52.1,20.8c3.4-1.1,7.6-2.7,10.6-6.1c0.8-0.7,1.9-0.8,0.8,1.8c-2.4,4.3-6.9,5.4-10.2,6L52.1,20.8z
	 M74.4,13.1c0,2.3,1.9,4.3,4.3,4.3c2.4,0,4.3-1.9,4.3-4.3c0-2.4-2-4.3-4.3-4.3C76.4,8.8,74.4,10.7,74.4,13.1z M23.3,33.1L21,36.4
	H3.6l2.2-3.3H23.3z M27.8,26.9l-2.4,3.3H8l2.2-3.3H27.8z M11.2,8.7h17.4l2.4,3.3H13.4L11.2,8.7z M17,17.3l-1.8-2.5h17.4l1.8,2.5
	l-0.3,0.6H16.7L17,17.3z M6.3,51.5h17.4l2.2,3H8.4L6.3,51.5z M19.1,39.3l-1.8,2.4l0.6,0.6H0.4L0,41.7l1.6-2.4H19.1z M2.7,45.5h17.4
	l2,2.9H4.6L2.7,45.5z M44,0l-1.3,13.1H41L39.8,0H44z M80.6,16L78,13.3h-0.3V16H77v-5.9h2c0.7,0,1.2,0.1,1.6,0.4s0.6,0.7,0.6,1.2
	c0,0.4-0.2,0.8-0.5,1.1c-0.4,0.3-1.1,0.5-1.9,0.5l2.7,2.7H80.6z M39.5,30.5c2.5,1.1,5,2.1,7.6,2.3c3.4,0.2,2.7-1.9,0.8-2.1
	C47,30.6,42.5,29.9,39.5,30.5z M80.4,11.8c0-0.4-0.2-0.8-0.6-0.9c-0.3-0.1-0.7-0.2-1.2-0.2h-0.9v2.2h0.8c0.8,0,1.3-0.1,1.6-0.4
	C80.3,12.3,80.4,12.1,80.4,11.8z M12.4,24.1h17.4l2.4-3.3H14.7L12.4,24.1z"/>
<g>
	<path class="st0" d="M112.4,54.6h-6.7l-1.8,5h-2.2l6.9-18.5h1l6.9,18.5h-2.3L112.4,54.6z M106.4,52.8h5.3l-2-5.5l-0.6-2.8h0
		l-0.6,2.8L106.4,52.8z"/>
	<path class="st0" d="M126.3,48.5h-5.5v11.2h-2.1v-13h7.6V48.5z"/>
	<path class="st0" d="M137.4,58.6c-0.5,0.4-1.2,0.7-2,1c-0.8,0.2-1.6,0.4-2.5,0.4c-1,0-1.8-0.2-2.6-0.5s-1.3-0.8-1.8-1.4
		c-0.5-0.6-0.8-1.3-1-2.1s-0.3-1.8-0.3-2.8c0-2.2,0.5-3.9,1.5-5.1c1-1.2,2.4-1.7,4.2-1.7c0.6,0,1.2,0.1,1.8,0.2
		c0.6,0.1,1.1,0.4,1.6,0.7c0.5,0.4,0.8,0.9,1.1,1.5c0.3,0.7,0.4,1.5,0.4,2.6c0,0.6-0.1,1.2-0.2,1.9h-8.3c0,0.8,0.1,1.4,0.2,2
		c0.2,0.6,0.4,1.1,0.7,1.5c0.3,0.4,0.8,0.7,1.3,0.9c0.5,0.2,1.2,0.3,1.9,0.3c0.6,0,1.2-0.1,1.8-0.3c0.6-0.2,1-0.5,1.3-0.7
		L137.4,58.6z M132.9,48.2c-1,0-1.8,0.3-2.5,0.8s-1,1.5-1.1,2.8h6.4c0-1.3-0.3-2.2-0.8-2.8C134.5,48.5,133.8,48.2,132.9,48.2z"/>
	<path class="st0" d="M149.1,53.9h-5.9v5.7h-2.1v-13h2.1v5.4h5.9v-5.4h2.1v13h-2.1V53.9z"/>
	<path class="st0" d="M163.4,48.5h-4.1v11.2h-2.1V48.5h-4.1v-1.8h10.2V48.5z"/>
	<path class="st0" d="M173.9,58.8c-0.5,0.4-1.1,0.7-1.8,0.9c-0.7,0.2-1.5,0.3-2.2,0.3c-1,0-1.9-0.2-2.5-0.5s-1.3-0.8-1.7-1.4
		c-0.4-0.6-0.8-1.3-1-2.2c-0.2-0.8-0.3-1.8-0.3-2.8c0-2.2,0.5-3.9,1.5-5.1s2.4-1.8,4.2-1.8c0.8,0,1.5,0.1,2.1,0.2
		c0.6,0.1,1.1,0.3,1.6,0.6l-0.6,1.8c-0.4-0.2-0.8-0.4-1.3-0.5c-0.5-0.1-1-0.2-1.6-0.2c-2.5,0-3.7,1.7-3.7,5c0,0.7,0.1,1.3,0.2,1.9
		c0.1,0.6,0.3,1.1,0.6,1.6c0.3,0.5,0.7,0.8,1.2,1.1c0.5,0.3,1.1,0.4,1.8,0.4c0.6,0,1.2-0.1,1.7-0.3s0.9-0.4,1.2-0.7L173.9,58.8z"/>
	<path class="st0" d="M184.6,48.5h-4.1v11.2h-2.1V48.5h-4.1v-1.8h10.2V48.5z"/>
	<path class="st0" d="M186.7,46.7c0.6,0,1.2-0.1,1.9-0.1c0.7-0.1,1.5-0.1,2.5-0.1c1.7,0,2.9,0.3,3.7,0.8c0.7,0.5,1.1,1.3,1.1,2.4
		c0,0.6-0.2,1.2-0.5,1.8c-0.4,0.6-0.9,1-1.8,1.3v0.1c1,0.2,1.7,0.5,2.2,1.1c0.4,0.5,0.6,1.2,0.6,2.1c0,1.4-0.5,2.3-1.5,2.9
		c-1,0.6-2.4,0.9-4.4,0.9c-0.7,0-1.4,0-2-0.1c-0.6,0-1.2-0.1-1.8-0.1V46.7z M191.3,52.2c0.3,0,0.6-0.1,0.9-0.2
		c0.3-0.1,0.6-0.2,0.8-0.4c0.2-0.2,0.4-0.4,0.6-0.6c0.1-0.2,0.2-0.5,0.2-0.8c0-0.7-0.2-1.2-0.6-1.4s-1.1-0.4-2.2-0.4
		c-0.6,0-1,0-1.3,0s-0.6,0-0.9,0.1v3.8H191.3z M188.8,57.9c0.3,0,0.7,0.1,1,0.1c0.3,0,0.7,0,1.1,0c1.2,0,2-0.2,2.6-0.5
		c0.6-0.3,0.8-0.9,0.8-1.7c0-0.6-0.2-1.1-0.7-1.5c-0.5-0.4-1.3-0.6-2.5-0.6h-2.3V57.9z"/>
	<path class="st0" d="M198.9,53.2c0-2.2,0.5-3.9,1.5-5.1c1-1.2,2.4-1.8,4.2-1.8c1,0,1.8,0.2,2.5,0.5c0.7,0.3,1.3,0.8,1.8,1.4
		s0.8,1.3,1,2.2c0.2,0.8,0.3,1.8,0.3,2.8c0,2.2-0.5,3.9-1.5,5.1c-1,1.2-2.4,1.8-4.2,1.8c-1,0-1.8-0.2-2.5-0.5
		c-0.7-0.3-1.3-0.8-1.8-1.4c-0.5-0.6-0.8-1.3-1-2.2C199,55.1,198.9,54.2,198.9,53.2z M201.1,53.2c0,0.7,0.1,1.3,0.2,1.9
		c0.1,0.6,0.3,1.1,0.6,1.6c0.3,0.5,0.6,0.8,1.1,1.1c0.5,0.3,1,0.4,1.6,0.4c2.4,0,3.5-1.6,3.5-5c0-0.7-0.1-1.3-0.2-1.9
		c-0.1-0.6-0.3-1.1-0.6-1.6c-0.3-0.5-0.6-0.8-1.1-1.1c-0.5-0.3-1-0.4-1.6-0.4C202.3,48.2,201.1,49.8,201.1,53.2z"/>
	<path class="st0" d="M228.5,53.9h-5.9v5.7h-2.1v-13h2.1v5.4h5.9v-5.4h2.1v13h-2.1V53.9z"/>
	<path class="st0" d="M244.1,58.6c-0.5,0.4-1.2,0.7-2,1c-0.8,0.2-1.6,0.4-2.5,0.4c-1,0-1.8-0.2-2.6-0.5c-0.7-0.3-1.3-0.8-1.8-1.4
		c-0.5-0.6-0.8-1.3-1-2.1c-0.2-0.8-0.3-1.8-0.3-2.8c0-2.2,0.5-3.9,1.5-5.1c1-1.2,2.4-1.7,4.2-1.7c0.6,0,1.2,0.1,1.8,0.2
		s1.1,0.4,1.6,0.7c0.5,0.4,0.8,0.9,1.1,1.5c0.3,0.7,0.4,1.5,0.4,2.6c0,0.6-0.1,1.2-0.2,1.9H236c0,0.8,0.1,1.4,0.2,2
		c0.2,0.6,0.4,1.1,0.7,1.5s0.8,0.7,1.3,0.9c0.5,0.2,1.2,0.3,1.9,0.3c0.6,0,1.2-0.1,1.8-0.3s1-0.5,1.3-0.7L244.1,58.6z M239.6,48.2
		c-1,0-1.8,0.3-2.5,0.8c-0.6,0.5-1,1.5-1.1,2.8h6.4c0-1.3-0.3-2.2-0.8-2.8C241.2,48.5,240.5,48.2,239.6,48.2z"/>
	<path class="st0" d="M258.7,63h-1.4l-0.4-3.3h-9.8l-0.4,3.3h-1.4v-5.1h1.5c0.1-0.2,0.3-0.5,0.5-1s0.4-1.2,0.7-2.1s0.4-2,0.6-3.3
		c0.2-1.3,0.3-2.9,0.3-4.7h7.9v11.2h1.9V63z M254.7,57.9v-9.4h-3.9c0,0.7-0.1,1.5-0.2,2.4c-0.1,0.9-0.2,1.7-0.4,2.6
		c-0.1,0.9-0.3,1.7-0.6,2.4c-0.2,0.8-0.5,1.4-0.8,2H254.7z"/>
	<path class="st0" d="M261.3,46.7c0.6,0,1.2-0.1,1.9-0.1c0.7-0.1,1.5-0.1,2.5-0.1c1.7,0,2.9,0.3,3.7,0.8c0.7,0.5,1.1,1.3,1.1,2.4
		c0,0.6-0.2,1.2-0.5,1.8c-0.4,0.6-0.9,1-1.8,1.3v0.1c1,0.2,1.7,0.5,2.2,1.1c0.4,0.5,0.6,1.2,0.6,2.1c0,1.4-0.5,2.3-1.5,2.9
		c-1,0.6-2.4,0.9-4.4,0.9c-0.7,0-1.4,0-2-0.1c-0.6,0-1.2-0.1-1.8-0.1V46.7z M265.9,52.2c0.3,0,0.6-0.1,0.9-0.2
		c0.3-0.1,0.6-0.2,0.8-0.4c0.2-0.2,0.4-0.4,0.6-0.6c0.1-0.2,0.2-0.5,0.2-0.8c0-0.7-0.2-1.2-0.6-1.4s-1.1-0.4-2.2-0.4
		c-0.6,0-1,0-1.3,0c-0.3,0-0.6,0-0.9,0.1v3.8H265.9z M263.3,57.9c0.3,0,0.7,0.1,1,0.1c0.3,0,0.7,0,1.1,0c1.2,0,2-0.2,2.6-0.5
		c0.6-0.3,0.8-0.9,0.8-1.7c0-0.6-0.2-1.1-0.7-1.5c-0.5-0.4-1.3-0.6-2.5-0.6h-2.3V57.9z"/>
	<path class="st0" d="M282.4,52l0.1-1.6h-0.1l-1.1,1.7l-5.8,7.6h-1.2v-13h2.1v7.9l-0.1,1.5h0.1l1-1.6l5.8-7.9h1.2v13h-2.1V52z"/>
	<path class="st0" d="M292.7,53.9l-3.8,5.7h-2.4l4.1-6l0.9-0.8l-1.3-1l-3.4-5.3h2.2l3.6,5.6h1.4v-5.6h2v5.9l1.2-0.4l3.6-5.5h2.2
		l-3.5,5.3l-1,0.8l1.3,1l3.8,5.8h-2.5l-3.8-5.8h-1.4v5.8h-2v-6.1L292.7,53.9z"/>
	<path class="st0" d="M313.7,52l0.1-1.6h-0.1l-1.1,1.7l-5.8,7.6h-1.2v-13h2.1v7.9l-0.1,1.5h0.1l1-1.6l5.8-7.9h1.2v13h-2.1V52z"/>
	<path class="st0" d="M330.5,52l0.2-2.5h-0.1l-0.9,2l-3.1,5.1h-0.7l-3.3-5.1l-0.9-2h-0.1l0.2,2.4v7.7h-1.9v-13h2.1l3.6,5.8l0.8,1.5
		h0.1l0.8-1.6l3.4-5.8h2.1v13h-2V52z"/>
	<path class="st0" d="M335.8,53.2c0-2.2,0.5-3.9,1.5-5.1c1-1.2,2.4-1.8,4.2-1.8c1,0,1.8,0.2,2.5,0.5c0.7,0.3,1.3,0.8,1.8,1.4
		s0.8,1.3,1,2.2c0.2,0.8,0.3,1.8,0.3,2.8c0,2.2-0.5,3.9-1.5,5.1c-1,1.2-2.4,1.8-4.2,1.8c-1,0-1.8-0.2-2.5-0.5
		c-0.7-0.3-1.3-0.8-1.8-1.4c-0.5-0.6-0.8-1.3-1-2.2C335.9,55.1,335.8,54.2,335.8,53.2z M338,53.2c0,0.7,0.1,1.3,0.2,1.9
		c0.1,0.6,0.3,1.1,0.6,1.6c0.3,0.5,0.6,0.8,1.1,1.1c0.5,0.3,1,0.4,1.6,0.4c2.4,0,3.5-1.6,3.5-5c0-0.7-0.1-1.3-0.2-1.9
		c-0.1-0.6-0.3-1.1-0.6-1.6c-0.3-0.5-0.6-0.8-1.1-1.1c-0.5-0.3-1-0.4-1.6-0.4C339.1,48.2,338,49.8,338,53.2z"/>
	<path class="st0" d="M359.3,58.8c-0.5,0.4-1.1,0.7-1.8,0.9c-0.7,0.2-1.5,0.3-2.2,0.3c-1,0-1.9-0.2-2.5-0.5
		c-0.7-0.3-1.3-0.8-1.7-1.4c-0.4-0.6-0.8-1.3-1-2.2c-0.2-0.8-0.3-1.8-0.3-2.8c0-2.2,0.5-3.9,1.5-5.1c1-1.2,2.4-1.8,4.2-1.8
		c0.8,0,1.5,0.1,2.1,0.2c0.6,0.1,1.1,0.3,1.6,0.6l-0.6,1.8c-0.4-0.2-0.8-0.4-1.3-0.5s-1-0.2-1.6-0.2c-2.5,0-3.7,1.7-3.7,5
		c0,0.7,0.1,1.3,0.2,1.9c0.1,0.6,0.3,1.1,0.7,1.6c0.3,0.5,0.7,0.8,1.2,1.1s1.1,0.4,1.8,0.4c0.6,0,1.2-0.1,1.7-0.3
		c0.5-0.2,0.9-0.4,1.2-0.7L359.3,58.8z"/>
	<path class="st0" d="M370,48.5H366v11.2h-2.1V48.5h-4.1v-1.8H370V48.5z"/>
	<path class="st0" d="M380.2,52l0.1-1.6h-0.1l-1.1,1.7l-5.8,7.6h-1.2v-13h2.1v7.9l-0.1,1.5h0.1l1-1.6l5.8-7.9h1.2v13h-2.1V52z"/>
</g>
</svg>
